<svg xmlns="http://www.w3.org/2000/svg" xmlns:xlink="http://www.w3.org/1999/xlink" viewBox="0 0 560 340" role="img" aria-label="Keukenwand met wandpanelen boven het werkblad"><g fill="#F5F2EC" stroke="#151413" stroke-width="1.2" stroke-linecap="round" stroke-linejoin="round"><rect x="36" y="20" width="488" height="280" fill="#EFEBE4" stroke="none"/><defs><pattern id="tx-keuken" patternUnits="userSpaceOnUse" x="36" y="20" width="488" height="280"><image href="../stalen/beton-691.jpg" width="488" height="488" y="-104.0" preserveAspectRatio="xMidYMid slice"/></pattern></defs><rect x="36" y="20" width="488" height="280" fill="url(#tx-keuken)" stroke="none" opacity=".72"/><line x1="158" y1="20" x2="158" y2="300" stroke="#8C6A4A" stroke-width="1" stroke-dasharray="3 4" fill="none"/><line x1="280" y1="20" x2="280" y2="300" stroke="#8C6A4A" stroke-width="1" stroke-dasharray="3 4" fill="none"/><line x1="402" y1="20" x2="402" y2="300" stroke="#8C6A4A" stroke-width="1" stroke-dasharray="3 4" fill="none"/><rect x="36" y="20" width="488" height="280" fill="none" stroke="#151413" stroke-width="1.2"/><line x1="6" y1="300" x2="554" y2="300" stroke="#151413" stroke-width="1.6"/><g stroke="#151413" stroke-width=".8" fill="#151413" font-family="Instrument Sans,Arial" font-size="10"><line x1="20" y1="20" x2="20" y2="300"/><line x1="16" y1="20" x2="24" y2="20"/><line x1="16" y1="300" x2="24" y2="300"/><text x="14" y="160.0" transform="rotate(-90 14 160.0)" text-anchor="middle" stroke="none">280 cm</text><line x1="36" y1="314" x2="158" y2="314"/><line x1="36" y1="310" x2="36" y2="318"/><line x1="158" y1="310" x2="158" y2="318"/><text x="97" y="328" text-anchor="middle" stroke="none">122 cm</text></g><path d="M36 214h488"/><path d="M36 220h488"/><path d="M36 220v80M158 220v80M280 220v80M402 220v80M524 220v80"/><path d="M96 252h4M218 252h4M340 252h4M462 252h4"/><path d="M300 20v54h-60l-16 26h132l-16-26h-40"/><path d="M96 214v-22h40v22"/><path d="M108 192v-10h16v10"/></g></svg>